{"accessors":[{"name":"Plane-Mesh_0_positions","componentType":5126,"count":441,"min":[-900,0,-900],"max":[900,0,900],"type":"VEC3","bufferView":0,"byteOffset":0},{"name":"Plane-Mesh_0_normals","componentType":5126,"count":441,"min":[0,1,0],"max":[0,1,0],"type":"VEC3","bufferView":1,"byteOffset":0},{"name":"Plane-Mesh_0_indices","componentType":5123,"count":2400,"min":[0],"max":[440],"type":"SCALAR","bufferView":2,"byteOffset":0},{"name":"Lathe-Mesh_0_positions","componentType":5126,"count":2075,"min":[-79.50326538085938,-0.0012479283614084125,-79.50326538085938],"max":[79.50326538085938,594.7955932617188,79.50326538085938],"type":"VEC3","bufferView":0,"byteOffset":5292},{"name":"Lathe-Mesh_0_normals","componentType":5126,"count":2075,"min":[-1,-0.9999507665634155,-1],"max":[1,0.9998287558555603,1],"type":"VEC3","bufferView":1,"byteOffset":5292},{"name":"Lathe-Mesh_0_indices","componentType":5123,"count":10416,"min":[0],"max":[2074],"type":"SCALAR","bufferView":2,"byteOffset":4800},{"name":"Lathe-Mesh_1_positions","componentType":5126,"count":18,"min":[-68.53126525878906,85.63933563232422,-79.13308715820312],"max":[68.53126525878906,265.1368103027344,-38.722511291503906],"type":"VEC3","bufferView":0,"byteOffset":30192},{"name":"Lathe-Mesh_1_normals","componentType":5126,"count":18,"min":[-0.8659871220588684,0.009403913281857967,0.49997788667678833],"max":[0.8659871220588684,0.009404021315276623,0.9999557733535767],"type":"VEC3","bufferView":1,"byteOffset":30192},{"name":"Lathe-Mesh_1_indices","componentType":5123,"count":48,"min":[0],"max":[17],"type":"SCALAR","bufferView":2,"byteOffset":25632},{"name":"Lathe-Mesh_2_positions","componentType":5126,"count":18,"min":[-37.75327682495117,431.3132629394531,-43.593727111816406],"max":[37.75327682495117,473.3987731933594,-19.616268157958984],"type":"VEC3","bufferView":0,"byteOffset":30408},{"name":"Lathe-Mesh_2_normals","componentType":5126,"count":18,"min":[-0.8614126443862915,-0.10307501256465912,0.497336745262146],"max":[0.8614126443862915,-0.10307493805885315,0.9946736097335815],"type":"VEC3","bufferView":1,"byteOffset":30408},{"name":"Lathe-Mesh_2_indices","componentType":5123,"count":48,"min":[0],"max":[17],"type":"SCALAR","bufferView":2,"byteOffset":25728}],"asset":{"generator":"obj2gltf","version":"2.0"},"buffers":[{"name":"input","byteLength":87072,"uri":"data:application/octet-stream;base64,"}],"bufferViews":[{"name":"bufferView_0","buffer":0,"byteLength":30624,"byteOffset":0,"byteStride":12,"target":34962},{"name":"bufferView_1","buffer":0,"byteLength":30624,"byteOffset":30624,"byteStride":12,"target":34962},{"name":"bufferView_3","buffer":0,"byteLength":25824,"byteOffset":61248,"target":34963}],"materials":[{"name":"default","pbrMetallicRoughness":{"baseColorFactor":[0.5,0.5,0.5,1],"metallicFactor":0,"roughnessFactor":1},"emissiveFactor":[0,0,0],"alphaMode":"OPAQUE","doubleSided":false},{"name":"Mat","pbrMetallicRoughness":{"baseColorFactor":[0.5,0.5,0.5,1],"metallicFactor":0,"roughnessFactor":1},"emissiveFactor":[0,0,0],"alphaMode":"OPAQUE","doubleSided":false},{"name":"Mat.1","pbrMetallicRoughness":{"baseColorFactor":[0.5,0.5,0.5,1],"metallicFactor":0,"roughnessFactor":1},"emissiveFactor":[0,0,0],"alphaMode":"OPAQUE","doubleSided":false},{"name":"Mat.2","pbrMetallicRoughness":{"baseColorFactor":[0.5,0.5,0.5,1],"metallicFactor":0,"roughnessFactor":1},"emissiveFactor":[0,0,0],"alphaMode":"OPAQUE","doubleSided":false}],"meshes":[{"name":"Plane-Mesh","primitives":[{"attributes":{"POSITION":0,"NORMAL":1},"indices":2,"material":0,"mode":4}]},{"name":"Lathe-Mesh","primitives":[{"attributes":{"POSITION":3,"NORMAL":4},"indices":5,"material":1,"mode":4},{"attributes":{"POSITION":6,"NORMAL":7},"indices":8,"material":2,"mode":4},{"attributes":{"POSITION":9,"NORMAL":10},"indices":11,"material":3,"mode":4}]}],"nodes":[{"name":"Plane","mesh":0},{"name":"Lathe","mesh":1}],"scene":0,"scenes":[{"nodes":[0,1]}]}
